<svg viewBox='0 0 10 10' xmlns='http://www.w3.org/2000/svg' fill='#d1d1d1'>
    <path d="M9.37497 1.65668H8.08913C8.00674 1.65669 7.9262 1.68114 7.85769 1.72693C7.78919 1.77271 7.7358 1.83778 7.70427 1.9139C7.67274 1.99003 7.66449 2.07379 7.68056 2.15461C7.69663 2.23542 7.7363 2.30966 7.79455 2.36793L8.24705 2.82043L6.75288 4.31418C6.67349 4.39005 6.56791 4.43239 6.45809 4.43239C6.34828 4.43239 6.24269 4.39005 6.1633 4.31418L6.09247 4.24293C5.85439 4.01546 5.53779 3.88852 5.20851 3.88852C4.87923 3.88852 4.56263 4.01546 4.32455 4.24293L2.19955 6.36793C2.12126 6.44644 2.07736 6.55284 2.07752 6.66373C2.07767 6.77461 2.12187 6.88088 2.20038 6.95918C2.2789 7.03747 2.3853 7.08137 2.49618 7.08121C2.60706 7.08106 2.71334 7.03686 2.79163 6.95834L4.91663 4.83334C4.99597 4.75738 5.10158 4.71497 5.21143 4.71497C5.32127 4.71497 5.42688 4.75738 5.50622 4.83334L5.57705 4.90459C5.81522 5.13188 6.13179 5.25868 6.46101 5.25868C6.79023 5.25868 7.10679 5.13188 7.34497 4.90459L8.83913 3.41043L9.29163 3.86293C9.3501 3.92024 9.42416 3.95906 9.50456 3.97453C9.58495 3.99 9.66813 3.98145 9.74369 3.94994C9.81925 3.91842 9.88386 3.86534 9.92944 3.79733C9.97502 3.72932 9.99955 3.64938 9.99997 3.56751V2.28168C9.99997 2.11592 9.93412 1.95695 9.81691 1.83974C9.6997 1.72253 9.54073 1.65668 9.37497 1.65668Z" /><path d="M9.58333 9.15667H2.08333C1.75181 9.15667 1.43387 9.02497 1.19945 8.79055C0.965029 8.55613 0.833333 8.23819 0.833333 7.90667V0.416667C0.833333 0.30616 0.789435 0.200179 0.711294 0.122039C0.633154 0.0438987 0.527174 0 0.416667 0C0.30616 0 0.200179 0.0438987 0.122039 0.122039C0.0438987 0.200179 0 0.30616 0 0.416667L0 7.90667C0.000661607 8.459 0.220367 8.98852 0.610925 9.37908C1.00148 9.76963 1.531 9.98934 2.08333 9.99H9.58333C9.69384 9.99 9.79982 9.9461 9.87796 9.86796C9.9561 9.78982 10 9.68384 10 9.57333C10 9.46283 9.9561 9.35684 9.87796 9.2787C9.79982 9.20056 9.69384 9.15667 9.58333 9.15667Z" />
</svg>