<svg viewBox='0 0 25 25' xmlns='http://www.w3.org/2000/svg' fill='#d1d1d1'>
   <path d="M7 0H4C2.93913 0 1.92172 0.421427 1.17157 1.17157C0.421427 1.92172 0 2.93913 0 4L0 7C0 8.06087 0.421427 9.07828 1.17157 9.82843C1.92172 10.5786 2.93913 11 4 11H7C8.06087 11 9.07828 10.5786 9.82843 9.82843C10.5786 9.07828 11 8.06087 11 7V4C11 2.93913 10.5786 1.92172 9.82843 1.17157C9.07828 0.421427 8.06087 0 7 0V0ZM9 7C9 7.53043 8.78929 8.03914 8.41421 8.41421C8.03914 8.78929 7.53043 9 7 9H4C3.46957 9 2.96086 8.78929 2.58579 8.41421C2.21071 8.03914 2 7.53043 2 7V4C2 3.46957 2.21071 2.96086 2.58579 2.58579C2.96086 2.21071 3.46957 2 4 2H7C7.53043 2 8.03914 2.21071 8.41421 2.58579C8.78929 2.96086 9 3.46957 9 4V7Z"/><path d="M7 13H4C2.93913 13 1.92172 13.4214 1.17157 14.1716C0.421427 14.9217 0 15.9391 0 17L0 20C0 21.0609 0.421427 22.0783 1.17157 22.8284C1.92172 23.5786 2.93913 24 4 24H7C8.06087 24 9.07828 23.5786 9.82843 22.8284C10.5786 22.0783 11 21.0609 11 20V17C11 15.9391 10.5786 14.9217 9.82843 14.1716C9.07828 13.4214 8.06087 13 7 13ZM9 20C9 20.5304 8.78929 21.0392 8.41421 21.4142C8.03914 21.7893 7.53043 22 7 22H4C3.46957 22 2.96086 21.7893 2.58579 21.4142C2.21071 21.0392 2 20.5304 2 20V17C2 16.4696 2.21071 15.9609 2.58579 15.5858C2.96086 15.2107 3.46957 15 4 15H7C7.53043 15 8.03914 15.2107 8.41421 15.5858C8.78929 15.9609 9 16.4696 9 17V20Z"/><path d="M20.0001 13H17.0001C15.9393 13 14.9218 13.4214 14.1717 14.1716C13.4215 14.9217 13.0001 15.9391 13.0001 17V20C13.0001 21.0609 13.4215 22.0783 14.1717 22.8284C14.9218 23.5786 15.9393 24 17.0001 24H20.0001C21.061 24 22.0784 23.5786 22.8285 22.8284C23.5787 22.0783 24.0001 21.0609 24.0001 20V17C24.0001 15.9391 23.5787 14.9217 22.8285 14.1716C22.0784 13.4214 21.061 13 20.0001 13ZM22.0001 20C22.0001 20.5304 21.7894 21.0392 21.4143 21.4142C21.0393 21.7893 20.5305 22 20.0001 22H17.0001C16.4697 22 15.961 21.7893 15.5859 21.4142C15.2108 21.0392 15.0001 20.5304 15.0001 20V17C15.0001 16.4696 15.2108 15.9609 15.5859 15.5858C15.961 15.2107 16.4697 15 17.0001 15H20.0001C20.5305 15 21.0393 15.2107 21.4143 15.5858C21.7894 15.9609 22.0001 16.4696 22.0001 17V20Z"/><path d="M14.0001 7H17.0001V10C17.0001 10.2652 17.1055 10.5196 17.293 10.7071C17.4806 10.8946 17.7349 11 18.0001 11C18.2653 11 18.5197 10.8946 18.7072 10.7071C18.8948 10.5196 19.0001 10.2652 19.0001 10V7H22.0001C22.2653 7 22.5197 6.89464 22.7072 6.70711C22.8948 6.51957 23.0001 6.26522 23.0001 6C23.0001 5.73478 22.8948 5.48043 22.7072 5.29289C22.5197 5.10536 22.2653 5 22.0001 5H19.0001V2C19.0001 1.73478 18.8948 1.48043 18.7072 1.29289C18.5197 1.10536 18.2653 1 18.0001 1C17.7349 1 17.4806 1.10536 17.293 1.29289C17.1055 1.48043 17.0001 1.73478 17.0001 2V5H14.0001C13.7349 5 13.4806 5.10536 13.293 5.29289C13.1055 5.48043 13.0001 5.73478 13.0001 6C13.0001 6.26522 13.1055 6.51957 13.293 6.70711C13.4806 6.89464 13.7349 7 14.0001 7Z"/>
</svg>