<svg viewBox='0 0 10 10' xmlns='http://www.w3.org/2000/svg' fill='#d1d1d1'>
    <path d="M6.68325 1.66692C6.41001 1.66758 6.14446 1.75748 5.92701 1.92295C5.70957 2.08842 5.55214 2.3204 5.47867 2.58359L3.79159 8.65359C3.75125 8.79992 3.66439 8.92916 3.54412 9.02176C3.42385 9.11437 3.27671 9.16532 3.12492 9.16692C2.97647 9.16496 2.83216 9.11764 2.71136 9.03132C2.59057 8.94501 2.49905 8.82382 2.44909 8.684L1.28534 5.484C1.2095 5.26597 1.08242 5.06933 0.914784 4.91061C0.747151 4.7519 0.543863 4.63574 0.322011 4.57192C0.214599 4.5459 0.121924 4.47827 0.0643737 4.38391C0.00682353 4.28956 -0.0108875 4.17621 0.0151368 4.0688C0.0411612 3.96138 0.108789 3.86871 0.203143 3.81116C0.297497 3.75361 0.410849 3.7359 0.518261 3.76192C0.874147 3.8573 1.20138 4.03808 1.47156 4.28859C1.74175 4.53909 1.94671 4.85175 2.06868 5.19942L3.09951 8.03275L4.67617 2.35942C4.79894 1.92123 5.0614 1.5351 5.42366 1.2597C5.78593 0.984295 6.22819 0.83468 6.68325 0.833588H9.58325C9.69376 0.833588 9.79974 0.877486 9.87788 0.955626C9.95602 1.03377 9.99992 1.13975 9.99992 1.25025C9.99992 1.36076 9.95602 1.46674 9.87788 1.54488C9.79974 1.62302 9.69376 1.66692 9.58325 1.66692H6.68325ZM9.83325 5.08359C9.74484 5.01728 9.63372 4.98881 9.52432 5.00444C9.41493 5.02007 9.31622 5.07852 9.24992 5.16692L8.33325 6.389L7.41659 5.16692C7.35028 5.07852 7.25157 5.02007 7.14218 5.00444C7.03278 4.98881 6.92166 5.01728 6.83325 5.08359C6.74485 5.14989 6.6864 5.2486 6.67077 5.358C6.65515 5.46739 6.68362 5.57852 6.74992 5.66692L7.81242 7.08359L6.74992 8.50025C6.71709 8.54403 6.6932 8.59384 6.67962 8.64685C6.66604 8.69985 6.66304 8.75501 6.67077 8.80918C6.67851 8.86335 6.69684 8.91546 6.72472 8.96254C6.7526 9.00963 6.78948 9.05076 6.83325 9.08359C6.87703 9.11642 6.92684 9.1403 6.97984 9.15388C7.03285 9.16746 7.08801 9.17047 7.14218 9.16273C7.19635 9.15499 7.24846 9.13666 7.29554 9.10878C7.34262 9.08091 7.38376 9.04403 7.41659 9.00025L8.33325 7.77817L9.24992 9.00025C9.28275 9.04403 9.32388 9.08091 9.37096 9.10878C9.41804 9.13666 9.47016 9.15499 9.52432 9.16273C9.57849 9.17047 9.63365 9.16746 9.68666 9.15388C9.73966 9.1403 9.78948 9.11642 9.83325 9.08359C9.87702 9.05076 9.9139 9.00963 9.94178 8.96254C9.96966 8.91546 9.98799 8.86335 9.99573 8.80918C10.0035 8.75501 10.0005 8.69985 9.98688 8.64685C9.9733 8.59384 9.94941 8.54403 9.91658 8.50025L8.85408 7.08359L9.91658 5.66692C9.94941 5.62315 9.9733 5.57334 9.98688 5.52033C10.0005 5.46732 10.0035 5.41216 9.99573 5.358C9.98799 5.30383 9.96966 5.25171 9.94178 5.20463C9.9139 5.15755 9.87702 5.11642 9.83325 5.08359Z" />
</svg>