<svg viewBox='0 0 10 10' xmlns='http://www.w3.org/2000/svg' fill='#d1d1d1'>
    <path
        d="M3.08335 2.31362C3.0449 2.24904 2.99034 2.19556 2.925 2.15842C2.85966 2.12127 2.7858 2.10175 2.71064 2.10175C2.63548 2.10175 2.56162 2.12127 2.49628 2.15842C2.43094 2.19556 2.37638 2.24904 2.33793 2.31362L0.0462646 6.89696C0.0213003 6.94595 0.00628196 6.99941 0.0020754 7.05424C-0.00213117 7.10907 0.00455728 7.16419 0.0217551 7.21642C0.038953 7.26865 0.06632 7.31696 0.102278 7.35857C0.138237 7.40017 0.182075 7.43425 0.231266 7.45883C0.280456 7.48341 0.334026 7.49801 0.388887 7.50179C0.443748 7.50557 0.498814 7.49845 0.550911 7.48085C0.603007 7.46325 0.651104 7.4355 0.692427 7.39922C0.733751 7.36294 0.767484 7.31884 0.791681 7.26946L1.50793 5.83321H3.9096L4.62793 7.26946C4.65213 7.31884 4.68586 7.36294 4.72719 7.39922C4.76851 7.4355 4.81661 7.46325 4.8687 7.48085C4.9208 7.49845 4.97586 7.50557 5.03073 7.50179C5.08559 7.49801 5.13916 7.48341 5.18835 7.45883C5.23754 7.43425 5.28138 7.40017 5.31733 7.35857C5.35329 7.31696 5.38066 7.26865 5.39786 7.21642C5.41506 7.16419 5.42174 7.10907 5.41754 7.05424C5.41333 6.99941 5.39831 6.94595 5.37335 6.89696L3.08335 2.31362ZM1.9246 4.99987L2.70835 3.43154L3.49293 4.99987H1.9246Z" />
    <path
        d="M9.58324 3.33319C9.47273 3.33319 9.36675 3.37709 9.28861 3.45523C9.21047 3.53337 9.16658 3.63935 9.16658 3.74986V3.76069C8.80808 3.48494 8.36886 3.33472 7.91658 3.33319C7.36405 3.33319 6.83414 3.55268 6.44344 3.94339C6.05274 4.33409 5.83325 4.86399 5.83325 5.41652C5.83325 5.96906 6.05274 6.49896 6.44344 6.88966C6.83414 7.28036 7.36405 7.49986 7.91658 7.49986C8.36886 7.49833 8.80808 7.34811 9.16658 7.07236V7.08319C9.16658 7.1937 9.21047 7.29968 9.28861 7.37782C9.36675 7.45596 9.47273 7.49986 9.58324 7.49986C9.69375 7.49986 9.79973 7.45596 9.87787 7.37782C9.95601 7.29968 9.99991 7.1937 9.99991 7.08319V3.74986C9.99991 3.63935 9.95601 3.53337 9.87787 3.45523C9.79973 3.37709 9.69375 3.33319 9.58324 3.33319ZM7.91658 6.66652C7.66935 6.66652 7.42768 6.59321 7.22212 6.45586C7.01656 6.31851 6.85634 6.12329 6.76173 5.89488C6.66712 5.66647 6.64237 5.41514 6.6906 5.17266C6.73883 4.93019 6.85788 4.70746 7.0327 4.53264C7.20751 4.35783 7.43024 4.23877 7.67272 4.19054C7.91519 4.14231 8.16653 4.16707 8.39493 4.26167C8.62334 4.35628 8.81856 4.5165 8.95591 4.72206C9.09327 4.92762 9.16658 5.1693 9.16658 5.41652C9.16658 5.74804 9.03488 6.06599 8.80046 6.30041C8.56604 6.53483 8.2481 6.66652 7.91658 6.66652Z" />
</svg>