<svg viewBox='0 0 24 24' xmlns='http://www.w3.org/2000/svg' fill='#d1d1d1'>
    <path
        d="M18.9999 4H15.8999C15.6678 2.87141 15.0537 1.85735 14.1611 1.12872C13.2686 0.40009 12.1521 0.00145452 10.9999 0L8.99988 0C7.84767 0.00145452 6.7312 0.40009 5.83863 1.12872C4.94606 1.85735 4.33197 2.87141 4.09988 4H0.999878C0.734661 4 0.480307 4.10536 0.292771 4.29289C0.105235 4.48043 -0.00012207 4.73478 -0.00012207 5C-0.00012207 5.26522 0.105235 5.51957 0.292771 5.70711C0.480307 5.89464 0.734661 6 0.999878 6H1.99988V19C2.00147 20.3256 2.52876 21.5964 3.4661 22.5338C4.40344 23.4711 5.67428 23.9984 6.99988 24H12.9999C14.3255 23.9984 15.5963 23.4711 16.5337 22.5338C17.471 21.5964 17.9983 20.3256 17.9999 19V6H18.9999C19.2651 6 19.5194 5.89464 19.707 5.70711C19.8945 5.51957 19.9999 5.26522 19.9999 5C19.9999 4.73478 19.8945 4.48043 19.707 4.29289C19.5194 4.10536 19.2651 4 18.9999 4ZM8.99988 2H10.9999C11.6202 2.00076 12.225 2.19338 12.7315 2.55144C13.238 2.90951 13.6213 3.41549 13.8289 4H6.17088C6.37846 3.41549 6.76178 2.90951 7.26826 2.55144C7.77475 2.19338 8.3796 2.00076 8.99988 2ZM15.9999 19C15.9999 19.7956 15.6838 20.5587 15.1212 21.1213C14.5586 21.6839 13.7955 22 12.9999 22H6.99988C6.20423 22 5.44117 21.6839 4.87856 21.1213C4.31595 20.5587 3.99988 19.7956 3.99988 19V6H15.9999V19Z" />
    <path
        d="M8 17.9994C8.26521 17.9994 8.51957 17.894 8.7071 17.7065C8.89464 17.5189 9 17.2646 9 16.9994V10.9994C9 10.7342 8.89464 10.4798 8.7071 10.2923C8.51957 10.1047 8.26521 9.99939 8 9.99939C7.73478 9.99939 7.48043 10.1047 7.29289 10.2923C7.10536 10.4798 7 10.7342 7 10.9994V16.9994C7 17.2646 7.10536 17.5189 7.29289 17.7065C7.48043 17.894 7.73478 17.9994 8 17.9994Z" />
    <path
        d="M11.9999 17.9994C12.2651 17.9994 12.5195 17.894 12.707 17.7065C12.8945 17.5189 12.9999 17.2646 12.9999 16.9994V10.9994C12.9999 10.7342 12.8945 10.4798 12.707 10.2923C12.5195 10.1047 12.2651 9.99939 11.9999 9.99939C11.7347 9.99939 11.4803 10.1047 11.2928 10.2923C11.1052 10.4798 10.9999 10.7342 10.9999 10.9994V16.9994C10.9999 17.2646 11.1052 17.5189 11.2928 17.7065C11.4803 17.894 11.7347 17.9994 11.9999 17.9994Z" />
</svg>